<?xml version="1.0" encoding="utf-8"?>
<!-- Generator: Adobe Illustrator 21.0.0, SVG Export Plug-In . SVG Version: 6.00 Build 0)  -->
<svg version="1.1" id="Capa_1" xmlns="http://www.w3.org/2000/svg" xmlns:xlink="http://www.w3.org/1999/xlink" x="0px" y="0px"
	 viewBox="0 0 386.5 116.5" style="enable-background:new 0 0 386.5 116.5;" xml:space="preserve">
<style type="text/css">
	.st0{fill:#FFFFFF;}
	.st1{fill:none;stroke:#FFFFFF;stroke-width:4;}
</style>
<rect x="-1337.7" y="925.3" style="fill:none;" width="1920" height="267"/>
<text transform="matrix(1 0 0 1 -520.6078 969.4139)" class="st0" style="font-family:'Thames-Serial-Regular'; font-size:60px;">JARDINES</text>
<g>
	<g>
		<path class="st0" d="M76.8,73.7c-1.4,0-2.7-0.4-3.7-1.1c-1.1-0.8-1.7-1.7-1.7-2.8c0-0.7,0.3-1.4,0.8-1.8c0.5-0.5,1.2-0.7,2-0.7
			c1.5,0,2.6,1,3.4,2.9c0.3,0.6,0.6,1,1,1c1,0,1.2-1.9,1.2-3.5v-23c0-1.2-0.2-2-0.7-2.4c-0.5-0.5-1.3-0.7-2.4-0.7h-1.1v-1.5h14.3
			v1.5h-1.1c-1.2,0-2.1,0.2-2.6,0.7c-0.5,0.5-0.7,1.3-0.7,2.4v19c0,2.9-0.8,5.4-2.4,7.2C81.4,72.8,79.3,73.7,76.8,73.7z"/>
		<path class="st0" d="M111.7,73.2v-1.5h1.1c2.4,0,2.4-1,2.4-1.3c0-0.2-0.1-0.7-0.5-1.7l-2.5-6.2h-11.2l-2.6,6.2
			c-0.4,1-0.5,1.5-0.5,1.7c0,0.4,0,1.3,2.4,1.3h1.1v1.5h-9.8v-1.5h0.8c0.6,0,1.1-0.2,1.5-0.6c0.5-0.5,1-1.4,1.6-2.7l12.5-28.7h0.9
			l12.1,28.7c0.5,1.2,1.1,2.1,1.6,2.6c0.5,0.5,1.2,0.7,2,0.7h0.8v1.5H111.7z M111.2,60l-4.6-10.8L101.9,60H111.2z"/>
		<path class="st0" d="M150.7,73.2l-11.5-15.3H137v10.6c0,1.2,0.2,2,0.6,2.5c0.4,0.4,1.2,0.7,2.3,0.7h1.1v1.5h-13.9v-1.5h1.1
			c1.1,0,1.9-0.2,2.4-0.7c0.5-0.5,0.7-1.3,0.7-2.5V44.7c0-1.2-0.2-2-0.7-2.5c-0.4-0.4-1.3-0.7-2.4-0.7h-1.1v-1.5h14.4
			c2.2,0,3.7,0.1,4.5,0.2c0.8,0.2,1.8,0.6,2.9,1.3c2.5,1.7,3.8,4,3.8,7.1c0,4.4-2.6,7.3-7.6,8.7l8.3,11c0.8,1.1,1.6,1.9,2.3,2.5
			c0.5,0.4,0.9,0.6,1.3,0.7c0.4,0.1,0.8,0.2,1.3,0.2h0.9v1.5H150.7z M137,55.6c1.3,0,2.2-0.1,2.9-0.1c0.7-0.1,1.5-0.3,2.2-0.5
			c2.9-1,4.3-2.9,4.3-6c0-2-0.6-3.6-1.8-4.8c-1.2-1.2-2.8-1.8-4.8-1.8c-1,0-1.9,0.2-2.9,0.6V55.6z"/>
		<path class="st0" d="M160.1,73.2v-1.5h1.1c1.3,0,2.1-0.2,2.6-0.7c0.5-0.5,0.7-1.3,0.7-2.5V44.7c0-1.2-0.2-2-0.7-2.4
			c-0.5-0.5-1.3-0.7-2.5-0.7h-1.1v-1.5h15.1c2.5,0,4.6,0.2,6.3,0.5c1.7,0.4,3.4,1,5,1.9c2.3,1.3,4.1,3.2,5.4,5.7
			c1.3,2.5,2,5.3,2,8.3c0,2.9-0.6,5.5-1.7,7.8c-1.2,2.3-2.9,4.2-5.1,5.8c-1.6,1.1-3.4,1.9-5.4,2.4c-1.9,0.5-4.3,0.7-7.2,0.7H160.1z
			 M170.2,69.6c0,0.2,0,0.7,1.2,0.9l4,0.3c1.4,0,3-0.4,4.6-1c1.6-0.7,3-1.6,4-2.8c2.3-2.5,3.5-5.9,3.5-10.2c0-2.2-0.4-4.3-1.1-6.4
			c-0.6-1.7-1.6-3.2-2.9-4.4c-1-1-2.3-1.8-3.9-2.4c-1.6-0.6-3.1-1-4.5-1c-1.3,0-2.9,0.3-5,0.8V69.6z"/>
		<path class="st0" d="M199.7,73.2v-1.5h1.1c1.3,0,2.2-0.2,2.7-0.7c0.5-0.5,0.7-1.3,0.7-2.5V44.7c0-1.2-0.2-2-0.7-2.4
			c-0.5-0.5-1.4-0.7-2.7-0.7h-1.1v-1.5h14.8v1.5h-1.1c-1.3,0-2.2,0.2-2.7,0.7c-0.5,0.4-0.7,1.3-0.7,2.5v23.9c0,1.2,0.2,2.1,0.7,2.5
			c0.5,0.4,1.4,0.7,2.7,0.7h1.1v1.5H199.7z"/>
		<path class="st0" d="M247.9,73.3l-21.6-25.9v21.1c0,1.2,0.2,2,0.7,2.5c0.5,0.5,1.3,0.7,2.6,0.7h1.1v1.5h-11.5v-1.5h1.2
			c1.2,0,2.1-0.2,2.6-0.7c0.5-0.5,0.7-1.3,0.7-2.5v-24c-1.1-1.3-1.9-2.1-2.5-2.5c-0.6-0.4-1.6-0.6-2.8-0.6h-0.4v-1.5l9.5,0
			l18.9,22.5l-0.2-17.9v-0.7c0-0.7-0.2-1.2-0.5-1.6c-0.5-0.6-1.3-0.8-2.6-0.8h-1.1v-1.5h11.8v1.5h-1.1c-0.9,0-1.6,0.1-2,0.2
			c-0.9,0.4-1.4,0.9-1.5,1.6l-0.1,0.7l0,0.7v28.8L247.9,73.3z"/>
		<path class="st0" d="M258.1,73.2v-1.5h1.1c1.2,0,2-0.2,2.5-0.7c0.5-0.5,0.7-1.3,0.7-2.5V44.7c0-1.2-0.2-2-0.7-2.4
			c-0.5-0.5-1.3-0.7-2.5-0.7h-1.1v-1.5h25.2v7.8h-1.2l-0.1-0.3c-0.2-1.1-0.4-1.9-0.6-2.4c-0.2-0.5-0.6-0.9-1-1.4
			c-0.5-0.4-1-0.7-1.5-0.8c-0.6-0.1-1.5-0.2-2.8-0.2h-8v11.7h6.4c1.2,0,2,0,2.4-0.1c0.4,0,0.8-0.3,1.2-0.7c0.5-0.4,0.8-0.9,1-1.4
			c0.2-0.5,0.3-1.2,0.3-2.2v-0.4h1.4v12h-1.4v-0.4c0-1-0.1-1.7-0.2-2.2c-0.1-0.4-0.4-0.9-0.7-1.3c-0.3-0.4-0.7-0.6-1-0.7
			c-0.3-0.1-0.9-0.2-2.5-0.2h-6.8v12.7c0,0.3,0.1,0.5,0.3,0.7c0.2,0.2,0.3,0.3,0.5,0.3h7.4c1.8,0,3.1-0.1,3.9-0.3
			c0.7-0.2,1.4-0.6,2.2-1.2c0.5-0.4,0.9-0.9,1.3-1.6c0.4-0.6,0.8-1.6,1.4-2.9l0.1-0.4l1.3,0.4l-2.7,8.4H258.1z"/>
		<path class="st0" d="M302.4,73.7c-1.2,0-2.6-0.2-4.2-0.7l-1.6-0.5c-0.4-0.2-0.9-0.3-1.4-0.3c-0.3,0-0.6,0.1-0.8,0.3
			c-0.2,0.2-0.4,0.5-0.6,1l-0.1,0.3h-1.6V62.2h1.6l0.1,0.3c0.4,1.6,0.7,2.8,1.1,3.7c0.4,0.8,0.9,1.7,1.7,2.5
			c0.7,0.8,1.5,1.4,2.3,1.7c0.8,0.3,1.8,0.5,3,0.5c1.6,0,3-0.4,4-1.3c1-0.9,1.5-2,1.5-3.4c0-1.5-0.5-2.8-1.6-3.9
			c-0.8-0.9-2.4-2.1-4.7-3.4c-1.6-0.9-2.8-1.6-3.4-2c-0.6-0.4-1.3-0.9-2.1-1.5c-2.4-1.9-3.6-4.2-3.6-7c0-2.6,0.8-4.7,2.5-6.3
			c1.7-1.6,3.8-2.5,6.5-2.5c1.4,0,2.7,0.2,3.9,0.6l1.7,0.7c0.3,0.1,0.6,0.2,0.9,0.2c0.6,0,0.8-0.1,0.9-0.2c0.1-0.1,0.4-0.3,0.7-1.1
			l0.1-0.2h1.5v11.2l-1.5,0.1l-0.1-0.4c-0.3-1.6-0.6-2.8-0.9-3.5c-0.3-0.8-0.8-1.5-1.4-2.2c-1.5-1.6-3.3-2.4-5.3-2.4
			c-1.4,0-2.6,0.4-3.4,1.2c-0.9,0.8-1.3,1.7-1.3,3c0,0.7,0.1,1.4,0.4,2c0.3,0.6,0.7,1.1,1.2,1.5c0.5,0.5,1.4,1.1,2.6,1.8l2.6,1.5
			l2.5,1.4c4.5,2.6,6.8,5.8,6.8,9.6c0,2.7-1,4.9-2.9,6.7C307.9,72.8,305.4,73.7,302.4,73.7z"/>
	</g>
</g>
<rect x="5.9" y="5.9" class="st1" width="374.8" height="104.2"/>
</svg>
