<?xml version="1.0" encoding="utf-8"?>
<!-- Generator: Adobe Illustrator 21.0.0, SVG Export Plug-In . SVG Version: 6.00 Build 0)  -->
<svg version="1.1" id="Capa_1" xmlns="http://www.w3.org/2000/svg" xmlns:xlink="http://www.w3.org/1999/xlink" x="0px" y="0px"
	 viewBox="0 0 438.8 122.6" style="enable-background:new 0 0 438.8 122.6;" xml:space="preserve">
<style type="text/css">
	.st0{fill:#FFFFFF;}
</style>
<path class="st0" d="M112.8,86.9c-0.6-4.4-1.6-9.5-2.8-15c-1.3-5.5-2.8-11.3-4.7-17.3c-1.9-6-4.2-11.5-6.8-16.5
	c-2.7-5-5.8-9.2-9.2-12.4c-3.6-3.4-7.7-5.2-12.1-5.2c-3.8,0-6.9,1.2-9.1,3.5c-2.1,2.2-3.8,4.9-5,8.2c-1.2,3.2-2.2,6.8-2.8,10.6
	c-0.6,3.7-1.4,7.3-2.2,10.7c-0.8,3.3-1.8,6.3-3,8.9c-0.9,2-2.2,3.4-3.7,4.3c-1.8-1.5-3.5-3.5-5.3-5.9c-2.1-2.8-4.2-5.9-6.3-9
	c-2.2-3.2-4.3-6.4-6.5-9.7c-2.2-3.3-4.6-6.3-7.1-9c-2.5-2.7-5.2-5-7.9-6.7c-2.9-1.8-6-2.7-9.3-2.7c-1.6,0-3.1,0.7-4.2,2
	c-1,1.1-1.7,2.4-2.3,3.8c-0.6,1.3-1,2.7-1.4,4.1l-0.8,3.1v0.2c0,1,0,2.7-0.1,5.1c0,2.4-0.1,5.1-0.1,7.8c0,2.8,0,5.4-0.1,7.8
	C0,60.1,0,61.8,0,62.9c0,5.5,0.2,10.6,0.6,15.4c0.4,4.7,0.9,9.4,1.5,14c0.6,4.6,1.3,9.3,2,13.9c0.7,4.7,1.4,9.7,2,14.9l0.1,1.3h1.3
	c0.1,0,0.2,0,0.3,0.1c0.4,0.1,0.8,0.2,1.1,0.2c0.4,0,0.8,0,1.1-0.1c0.4,0,0.7-0.1,1-0.3l0.1,0l0.1-0.1c0.2-0.1,0.6-0.4,1.4-1.2
	c0.6-0.5,1.3-1.1,1.9-1.8c0.6-0.6,1.2-1.2,1.7-1.8c0.6-0.7,1-1.2,1.3-1.7l0.2-0.3v-1.5c0-3.8-0.3-7.7-1-11.5
	c-0.6-3.8-1.3-7.5-2.1-11.2c-0.7-3.7-1.4-7.4-2.1-11.1c-0.6-3.6-1-7.4-1-11.1c0-2.5,0-4.8,0.1-6.9c0-2,0.2-4,0.4-5.9
	c0.2-1.9,0.6-4,1-6c0.3-1.4,0.6-3,1.1-4.8c1.2,1.2,2.4,2.6,3.6,4.3c1.8,2.6,3.8,5.4,5.7,8.3l6,9.2c2.1,3.2,4.2,6.1,6.4,8.7
	c2.2,2.6,4.6,4.8,7,6.5c2.6,1.7,5.2,2.6,8,2.6c3.9,0,7-1.1,9.3-3.2c2.2-2,4.1-4.6,5.5-7.7c1.4-3,2.5-6.5,3.3-10.2
	c0.8-3.6,1.7-7.1,2.7-10.5c1-3.3,2.2-6.5,3.7-9.3c1.1-2.2,2.7-4,4.5-5.3c2.9,3.5,5.3,7.6,7.3,12.2c2.2,5.1,4.1,10.5,5.5,15.9
	c1.5,5.5,2.7,11,3.7,16.4c1,5.4,1.9,10.4,2.7,14.8c0.1,0.6,0.5,1.3,1.1,2.1c0.5,0.7,1.1,1.3,1.7,2c0.7,0.7,1.3,1.2,2,1.7
	c0.8,0.6,1.5,0.9,2,1c0.9,0.2,1.7,0.4,2.4,0.4c0.8,0,1.5-0.2,2.2-0.5c1.1-0.6,1.9-1.4,2.4-2.5c0.4-0.9,0.7-2,0.8-3.1
	c0.1-1,0.1-1.9,0.1-2.7C113.7,94.5,113.4,91.4,112.8,86.9z"/>
<path class="st0" d="M211.5,95.8c-0.2-0.6-0.5-1.2-0.8-1.8c-0.3-0.7-0.6-1.4-1-2c-0.4-0.7-0.9-1.2-1.3-1.5l-0.1,0l-0.1,0
	c-9.7-5.2-19.7-10.1-29.8-14.7c-9.8-4.4-20.1-8.2-30.5-11.3c0,0,0,0,0-0.1c0-0.1,0-0.1-0.1-0.2c0-2.1,0.7-4,2.1-5.8
	c1.5-2,3.5-4,5.8-5.9c2.4-2,5-4,7.7-6c2.9-2.1,5.5-4.4,8-6.8c2.5-2.4,4.6-5.1,6.3-8c1.8-3,2.6-6.3,2.6-10c0-3.2-0.7-6-2-8.3
	c-1.3-2.3-3.1-4.3-5.3-5.9c-2.1-1.6-4.6-2.9-7.3-3.9c-2.7-1-5.4-1.7-8.2-2.2c-2.7-0.5-5.4-0.8-8.1-1.1c-2.7-0.2-5.1-0.3-7.1-0.3
	c-1.4,0-3.4,0-5.7-0.1c-0.5,0-1,0-1.5,0c-2,0-4.1,0.1-6.1,0.4c-2.6,0.3-5.1,1-7.3,1.9c-2.4,1-4.3,2.6-5.4,4.8l-0.2,0.3v0.4
	c0,0.6,0,1.8-0.1,3.4c0,1.7-0.1,3.5-0.1,5.3c0,2,0,3.7-0.1,5.3c0,1.7-0.1,2.9-0.1,3.5c0,3.8,0.2,8.5,0.6,14.1
	c0.4,5.6,1.1,11.6,2,17.9c0.9,6.3,2.2,12.9,3.7,19.5c1.5,6.6,3.4,13,5.5,18.9c2.2,5.9,4.8,11.3,7.8,15.9c3,4.7,6.6,8.3,10.5,10.6
	l0.5,0.3l0.6-0.1c1.4-0.3,2.4-1.1,3-2.1c0.6-0.9,0.9-1.9,1.1-3c0.1-1,0.2-2,0.1-2.9c0-0.9-0.1-1.6-0.1-2.1c0-3-0.2-5.8-0.6-8.3
	c-0.4-2.5-1-5.1-1.8-7.6c-0.8-2.5-1.8-5.1-2.9-7.7c-0.9-2-1.9-4.3-3-6.8h2.1c5.1,0,10.2,1,15,3.1c5,2.1,9.9,4.5,14.7,7.1
	c4.9,2.6,9.8,5,14.6,7.2c5,2.2,10.1,3.4,15.2,3.4c0.4,0,1,0,1.7-0.1c0.8,0,1.5-0.2,2.3-0.4c0.8-0.3,1.5-0.7,2.1-1.2
	c0.5-0.5,1.2-1.4,1.2-2.9C212,97.2,211.8,96.6,211.5,95.8z M133,52.8L133,52.8c-1-1-1.6-2.1-2-3.5c-0.5-1.7-0.7-3.4-0.8-5.3
	c-0.1-1.9-0.1-3.7,0.1-5.5c0.1-1.9,0.2-3.4,0.2-4.7c0-0.6,0-1.5,0.1-2.9c0-1.4,0.1-2.9,0.1-4.4c0-1.5,0-3,0.1-4.3
	c0-1.2,0.1-2,0.1-2.6c0.5-1.2,1.3-2.1,2.5-2.7c1.5-0.7,3.2-1.2,5-1.5c1.7-0.2,3.4-0.4,5.2-0.4c0.2,0,0.5,0,0.7,0
	c2.1,0,3.9,0.1,5.4,0.1c1.2,0,2.8,0.2,4.7,0.5c1.9,0.3,3.8,0.9,5.5,1.7c1.7,0.7,3.2,1.7,4.4,2.9c1.1,1,1.6,2.2,1.6,3.5
	c0,1.7-0.6,3.6-1.6,5.6c-1.2,2.2-2.7,4.4-4.6,6.5c-1.9,2.2-4.1,4.4-6.5,6.4c-2.4,2.1-4.9,3.9-7.3,5.5c-2.4,1.6-4.8,2.8-7,3.8
	c-2.1,0.9-3.9,1.3-5.3,1.3c-0.1,0-0.1,0-0.1,0L133,52.8z"/>
<path class="st0" d="M327.2,86.9c-0.6-4.4-1.6-9.5-2.8-15c-1.3-5.5-2.9-11.4-4.7-17.3c-1.9-6-4.2-11.5-6.8-16.5
	c-2.7-5-5.8-9.2-9.2-12.4c-3.6-3.4-7.7-5.2-12.1-5.2c-3.8,0-6.9,1.2-9.1,3.5c-2.1,2.2-3.8,4.9-5,8.2c-1.2,3.2-2.2,6.8-2.8,10.6
	c-0.6,3.7-1.4,7.3-2.2,10.7c-0.8,3.3-1.8,6.3-3,8.9c-0.9,2-2.2,3.4-3.7,4.3c-1.8-1.5-3.5-3.5-5.3-5.9c-2.1-2.8-4.2-5.9-6.3-9
	c-2.2-3.2-4.3-6.4-6.5-9.7c-2.2-3.3-4.6-6.3-7.1-9c-2.5-2.7-5.2-5-7.9-6.7c-2.9-1.8-6-2.7-9.3-2.7c-1.6,0-3.1,0.7-4.2,2
	c-1,1.1-1.7,2.4-2.3,3.8c-0.6,1.3-1,2.7-1.4,4.1l-0.8,3.1v0.2c0,1,0,2.7-0.1,5.1c0,2.4-0.1,5.1-0.1,7.8c0,2.8,0,5.4-0.1,7.8
	c0,2.5-0.1,4.3-0.1,5.3c0,5.5,0.2,10.6,0.6,15.4c0.4,4.7,0.9,9.4,1.5,14c0.6,4.5,1.3,9.2,2,13.9c0.7,4.6,1.4,9.7,2,14.9l0.1,1.3h1.3
	c0.1,0,0.2,0,0.3,0.1c0.4,0.1,0.8,0.2,1.1,0.2c0.4,0,0.8,0,1.1-0.1c0.4,0,0.7-0.1,1-0.3l0.1,0l0.1-0.1c0.2-0.1,0.6-0.4,1.4-1.1
	c0.6-0.6,1.3-1.2,1.9-1.8c0.6-0.6,1.2-1.2,1.7-1.8c0.6-0.7,1-1.2,1.3-1.7l0.2-0.3v-1.4c0-3.8-0.3-7.7-1-11.5
	c-0.6-3.8-1.3-7.6-2.1-11.2c-0.7-3.6-1.4-7.4-2.1-11.1c-0.6-3.6-1-7.4-1-11.1c0-2.5,0-4.8,0.1-6.9c0-2,0.2-4,0.4-5.9
	c0.2-1.9,0.6-4,1-6c0.3-1.4,0.6-3,1.1-4.8c1.2,1.2,2.4,2.6,3.6,4.3c1.8,2.6,3.8,5.4,5.7,8.3l6,9.2c2.1,3.2,4.2,6.1,6.4,8.7
	c2.2,2.6,4.6,4.8,7,6.5c2.6,1.7,5.2,2.6,8,2.6c3.9,0,7-1.1,9.3-3.2c2.2-2,4.1-4.6,5.5-7.7c1.4-3,2.5-6.5,3.3-10.2
	c0.8-3.6,1.7-7.1,2.7-10.5c1-3.3,2.2-6.5,3.7-9.3c1.1-2.2,2.7-4,4.5-5.3c2.9,3.5,5.3,7.6,7.3,12.2c2.2,5.1,4.1,10.5,5.5,15.9
	c1.5,5.5,2.7,11,3.7,16.4c1,5.4,1.9,10.4,2.7,14.8c0.1,0.6,0.5,1.3,1.1,2.1c0.5,0.7,1.1,1.3,1.7,2c0.7,0.7,1.3,1.2,2,1.7
	c0.8,0.6,1.5,0.9,2,1c0.9,0.2,1.7,0.4,2.4,0.4c0.8,0,1.5-0.2,2.2-0.5c1.1-0.6,1.9-1.4,2.4-2.5c0.4-0.9,0.7-2,0.8-3.1
	c0.1-1,0.1-1.9,0.1-2.7C328.1,94.6,327.8,91.4,327.2,86.9z"/>
<path class="st0" d="M437.3,20.5c-8.3,0-16.7,0.2-25,0.7c-8.2,0.4-16.5,0.9-24.7,1.4c-8.2,0.5-16.5,0.9-24.7,1.2
	c-4.4,0.2-8.9,0.2-13.4,0.2c-3.8,0-7.7-0.1-11.6-0.2l-0.3,0l-0.3,0.1c-2,0.7-3.3,1.9-3.6,3.4c-0.3,1.1-0.4,2.4-0.4,3.7
	c0,0.4,0,0.9,0.1,1.7c0.1,0.6,0.1,1,0.1,1.1v1.3l1.3,0.1c1.5,0.2,4.2,0.4,8.1,0.7l24.5,1.8c3.8,0.3,6.5,0.5,8.1,0.6
	c0.7,0,1.6-0.1,2.8-0.3c0.9-0.1,1.8-0.2,2.7-0.2c0.2,0,0.5,0,0.7,0c1,0,2,0.2,2.9,0.6c0.6,0.2,0.9,0.7,1.2,1.3
	c0,1.6,0.1,4.5,0.4,8.9c0.2,4.6,0.7,10,1.2,16c0.6,6,1.3,12.5,2.3,19.1c1,6.6,2.2,12.8,3.7,18.4c1.5,5.7,3.3,10.4,5.4,14.1
	c2.3,4.1,5.1,6.2,8.4,6.2c5.1,0,8-2.6,8-7.2c0-5.1-0.7-10.3-2-15.3c-1.3-4.9-2.8-9.9-4.3-14.8c-1.6-4.9-3-9.8-4.3-14.8
	c-1.3-4.8-1.9-9.9-1.9-14.9c0-0.6,0-1.6,0.1-3.1c0-1.5,0.1-3.1,0.1-4.8c0-1.7,0.1-3.3,0.2-4.8c0.1-1.7,0.2-2.5,0.2-2.9
	c0.5-1.8,1.6-3,3.1-3.6c1.9-0.8,4.1-1.3,6.5-1.4c1.7-0.1,3.5-0.2,5.4-0.2c0.9,0,1.9,0,2.8,0c0.4,0,0.8,0,1.2,0c2.6,0,5-0.2,7.1-0.7
	c2.7-0.6,4.9-1.8,6.7-3.6c1.9-1.9,2.8-4.7,2.8-8.5v-1.5H437.3z"/>
</svg>
