{"asset":{"version":"2.0","generator":"babylon.js glTF exporter for Maya 2018 v20200617.6"},"scene":0,"scenes":[{"nodes":[0]}],"nodes":[{"mesh":0,"translation":[0.0,0.0187608022,0.0],"rotation":[-0.2229029,-0.285041,-0.5742695,0.734357238],"name":"pPlane1"}],"meshes":[{"primitives":[{"attributes":{"POSITION":1,"TANGENT":2,"NORMAL":3,"TEXCOORD_0":4},"indices":0,"material":0}],"name":"pPlane1"}],"accessors":[{"bufferView":0,"componentType":5123,"count":6,"type":"SCALAR","name":"accessorIndices"},{"bufferView":1,"componentType":5126,"count":6,"max":[0.005,0.0,0.005],"min":[-0.005,0.0,-0.005],"type":"VEC3","name":"accessorPositions"},{"bufferView":2,"componentType":5126,"count":6,"type":"VEC4","name":"accessorTangents"},{"bufferView":1,"byteOffset":72,"componentType":5126,"count":6,"type":"VEC3","name":"accessorNormals"},{"bufferView":3,"componentType":5126,"count":6,"type":"VEC2","name":"accessorUVs"}],"bufferViews":[{"buffer":0,"byteLength":12,"name":"bufferViewScalar"},{"buffer":0,"byteOffset":12,"byteLength":144,"byteStride":12,"name":"bufferViewFloatVec3"},{"buffer":0,"byteOffset":156,"byteLength":96,"byteStride":16,"name":"bufferViewFloatVec4"},{"buffer":0,"byteOffset":252,"byteLength":48,"byteStride":8,"name":"bufferViewFloatVec2"}],"buffers":[{"uri":"AudioPosition.bin","byteLength":300}],"materials":[{"pbrMetallicRoughness":{"baseColorFactor":[0.0,0.1607,0.0,1.0],"metallicFactor":0.0,"roughnessFactor":0.450053632},"name":"lambert2"}]}