<?xml version="1.0" encoding="utf-8"?>
<!-- Generator: Adobe Illustrator 21.0.0, SVG Export Plug-In . SVG Version: 6.00 Build 0)  -->
<svg version="1.1" id="Capa_1" xmlns="http://www.w3.org/2000/svg" xmlns:xlink="http://www.w3.org/1999/xlink" x="0px" y="0px"
	 viewBox="0 0 959.2 192.7" style="enable-background:new 0 0 959.2 192.7;" xml:space="preserve">
<style type="text/css">
	.st0{fill:#FFFFFF;}
</style>
<circle class="st0" cx="96.4" cy="96.4" r="96.4"/>
<circle class="st0" cx="96.4" cy="96.4" r="96.4"/>
<circle class="st0" cx="479.2" cy="96.4" r="96.4"/>
<circle class="st0" cx="479.2" cy="96.4" r="96.4"/>
<circle class="st0" cx="862.8" cy="96.4" r="96.4"/>
<circle class="st0" cx="862.8" cy="96.4" r="96.4"/>
<polygon class="st0" points="575.6,0.1 575.6,18.4 680.6,192.7 766.5,192.7 766.5,179.9 658.2,0.1 "/>
<polygon class="st0" points="327.4,0.2 327.4,0.2 247.2,0.2 247.2,0.2 188.2,0.2 188.2,38.9 233.5,79.4 247.2,79.4 247.2,192.7 
	327.4,192.7 327.4,79.4 341.1,79.4 386.4,38.9 386.4,0.2 "/>
</svg>
